<?xml version="1.0" encoding="UTF-8" standalone="no"?>
<svg
   xmlns:dc="http://purl.org/dc/elements/1.1/"
   xmlns:cc="http://creativecommons.org/ns#"
   xmlns:rdf="http://www.w3.org/1999/02/22-rdf-syntax-ns#"
   xmlns:svg="http://www.w3.org/2000/svg"
   xmlns="http://www.w3.org/2000/svg"
   xmlns:sodipodi="http://sodipodi.sourceforge.net/DTD/sodipodi-0.dtd"
   xmlns:inkscape="http://www.inkscape.org/namespaces/inkscape"
   width="24"
   height="24"
   viewBox="0 0 24 24"
   id="svg3336"
   version="1.1"
   inkscape:version="0.91 r13725"
   sodipodi:docname="pause.svg"
   inkscape:export-filename="D:\OneDrive\Documents\birdie\canary\res\pause_1000.png"
   inkscape:export-xdpi="171.52522"
   inkscape:export-ydpi="171.52522">
  <metadata
     id="metadata3346">
    <rdf:RDF>
      <cc:Work
         rdf:about="">
        <dc:format>image/svg+xml</dc:format>
        <dc:type
           rdf:resource="http://purl.org/dc/dcmitype/StillImage" />
        <dc:title></dc:title>
      </cc:Work>
    </rdf:RDF>
  </metadata>
  <defs
     id="defs3344" />
  <sodipodi:namedview
     pagecolor="#ffffff"
     bordercolor="#666666"
     borderopacity="1"
     objecttolerance="10"
     gridtolerance="10"
     guidetolerance="10"
     inkscape:pageopacity="0"
     inkscape:pageshadow="2"
     inkscape:window-width="1920"
     inkscape:window-height="1017"
     id="namedview3342"
     showgrid="false"
     inkscape:zoom="12.49222"
     inkscape:cx="3.493086"
     inkscape:cy="8.869783"
     inkscape:window-x="-8"
     inkscape:window-y="-8"
     inkscape:window-maximized="1"
     inkscape:current-layer="g3359" />
  <g
     id="g3359"
     transform="translate(307.39133,208.12954)">
    <path
       style="fill:#fce100"
       d="m -296.32055,-184.65558 c -2.8107,-0.27072 -5.29761,-1.45094 -7.2246,-3.42853 -2.57361,-2.6412 -3.71314,-6.31429 -3.09121,-9.96393 0.20349,-1.19411 0.67577,-2.53247 1.2674,-3.59156 2.80261,-5.01711 8.77054,-7.19512 14.14053,-5.1606 1.48917,0.5642 2.80953,1.4279 3.99488,2.61326 0.62667,0.62666 1.01804,1.09972 1.45547,1.75923 1.74445,2.63014 2.32676,5.83871 1.61962,8.92426 -0.97469,4.25298 -4.338,7.61628 -8.59094,8.59095 -1.14512,0.26244 -2.50105,0.35998 -3.57115,0.25692 z"
       id="path3363"
       inkscape:connector-curvature="0" />
    <path
       style="fill:#050503"
       d="m -296.44611,-184.33526 c -2.02555,-0.23191 -3.66681,-0.80072 -5.26251,-1.82379 -1.98052,-1.26982 -3.55712,-3.13684 -4.48137,-5.30685 -1.01259,-2.37741 -1.21364,-4.92969 -0.58935,-7.48094 1.02482,-4.18796 4.39384,-7.55717 8.58637,-8.58685 1.90423,-0.46769 3.7399,-0.47533 5.63074,-0.0235 4.53677,1.08422 8.06533,4.8454 8.84771,9.431 0.2856,1.6739 0.23872,3.18141 -0.14965,4.81236 -0.9705,4.07572 -4.14786,7.40079 -8.18053,8.56084 -0.54043,0.15545 -1.23011,0.29723 -1.85503,0.3813 -0.6331,0.0851 -1.95511,0.10405 -2.54638,0.0363 z m 2.41435,-2.00003 c 2.1519,-0.28921 4.07747,-1.24714 5.63717,-2.80441 1.56779,-1.56532 2.50415,-3.44721 2.81864,-5.66479 0.0927,-0.6533 0.0923,-1.87534 -6.6e-4,-2.56525 -0.29075,-2.15496 -1.25892,-4.10354 -2.80908,-5.6537 -1.5908,-1.59081 -3.42286,-2.49776 -5.70251,-2.82299 -0.67045,-0.0956 -1.90109,-0.0854 -2.62182,0.0219 -2.17976,0.32434 -4.01728,1.24795 -5.56818,2.79885 -1.56549,1.56551 -2.48927,3.43085 -2.81031,5.67488 -0.0986,0.6894 -0.0902,1.90941 0.0182,2.64069 0.3231,2.17886 1.24542,4.01502 2.79533,5.56493 1.31823,1.31822 2.83901,2.17671 4.64071,2.6197 0.4328,0.10639 0.96047,0.19045 1.641,0.26137 0.30648,0.0318 1.52292,-0.0125 1.96165,-0.071 z m -3.75881,-6.42876 -0.089,-0.0721 -0.009,-3.22593 -0.009,-3.22594 0.0916,-0.10657 0.0916,-0.10655 0.60291,-0.0125 c 0.68696,-0.0138 0.8784,0.0197 0.94434,0.16445 0.0323,0.0707 0.0439,0.94141 0.0439,3.2839 l 0,3.18764 -0.0927,0.0927 c -0.0916,0.0916 -0.10004,0.0927 -0.78803,0.0927 -0.62849,0 -0.70401,-0.007 -0.7845,-0.0721 z m 3.34212,-0.0204 -0.0927,-0.0927 0,-3.18764 c 0,-2.34526 0.0111,-3.21311 0.044,-3.28405 0.0673,-0.148 0.2401,-0.17855 0.9308,-0.1647 l 0.61639,0.0125 0.0916,0.10656 0.0916,0.10655 -0.009,3.22595 -0.009,3.22593 -0.089,0.0721 c -0.0804,0.0653 -0.15601,0.0721 -0.78449,0.0721 -0.68806,0 -0.69642,-0.001 -0.78802,-0.0927 z"
       id="path3361"
       inkscape:connector-curvature="0"
       inkscape:export-filename="D:\OneDrive\Documents\birdie\canary\res\pause_1000.png"
       inkscape:export-xdpi="166.74117"
       inkscape:export-ydpi="166.74117" />
  </g>
</svg>
